<svg xmlns="http://www.w3.org/2000/svg" width="42" height="39" viewBox="0 0 42 39">
    <g fill="none" fill-rule="nonzero">
        <path fill="#3CA8BF" d="M26.06 1.854c4.448.003 8.053 3.55 8.056 7.927 0 2.536-1.221 4.368-2.588 6.3-3.701 5.23-13.5 12.062-13.5 12.062S8.178 21.317 4.5 16.086c-1.367-1.932-2.587-3.764-2.587-6.3-.002-3.747 2.664-6.984 6.39-7.758 3.727-.775 7.495 1.125 9.033 4.554a.719.719 0 0 0 .69.503.719.719 0 0 0 .688-.503C20 3.716 22.878 1.864 26.061 1.854zm0-1.854C22.868.004 19.87 1.515 18 4.063 15.478.623 10.989-.826 6.886.478 2.783 1.78.002 5.538 0 9.78c0 3.222 1.626 5.536 2.93 7.363 3.82 5.435 13.568 12.228 13.984 12.515a1.91 1.91 0 0 0 2.177 0c.41-.287 10.125-7.08 13.984-12.515C34.375 15.3 36 13.008 36 9.78 35.994 4.381 31.547.006 26.06 0z"/>
        <g fill="#FFF">
            <path d="M39.53 34.787l-1.743 1.743-3.98-3.98 1.743-1.744zM20.133 19.214l2.081-2.081-4.519-3.37-.933.932zM35.896 29.332L32.33 32.9 19.894 20.469l3.567-3.567z"/>
            <path d="M34.682 30.547l-1.138 1.137L20.61 18.739l1.137-1.137z"/>
            <path d="M36.105 29.123l-1.517 1.52-12.945-12.936 1.518-1.52z"/>
        </g>
        <path fill="#3CA8BF" d="M12.136 9.797l4.219 4.219-.136.14a.778.778 0 0 0-.075 1.013l2.934 3.933-.272.271a1.552 1.552 0 0 0 0 2.199L31.22 33.994l-.469.468a.778.778 0 0 0 1.097 1.097l1.912-1.912 2.93 2.883-1.144 1.143a.778.778 0 0 0 1.097 1.102l2.545-2.588.891-.853 1.688-1.687a.778.778 0 0 0-1.097-1.097l-1.144 1.144-2.883-2.883 1.917-1.917a.778.778 0 1 0-1.097-1.097l-.468.469-12.432-12.464a1.552 1.552 0 0 0-2.198 0l-.272.271-3.933-2.934a.778.778 0 0 0-1.003.08l-.136.136-4.218-4.22a.469.469 0 0 0-.661.657l-.005.005zm16.078 14.939l5.817 5.826-.468.47-5.813-5.813.464-.483zM38.433 34.78l-.652.652-2.883-2.883.647-.647 2.888 2.878zm-2.527-5.451l-.886.886-6.145-6.141.202-.202a.469.469 0 0 0-.67-.656l-.53.53-.343.342-1.322 1.317a.469.469 0 1 0 .661.656l.202-.201 6.14 6.14-.885.905-12.432-12.44.54-.54a.788.788 0 0 0 .248-.163l2.095-2.082a.773.773 0 0 0 .164-.248l.54-.54L35.905 29.33zM20.981 17.184l-.801.802-2.344-3.15 3.145 2.348z"/>
    </g>
</svg>
