<svg height="496pt" viewBox="0 0 496 496" width="496pt" xmlns="http://www.w3.org/2000/svg" fill="#3ca8bf">

<path d="m0 240h32v16h-32zm0 0"/>
<path d="m240 464h16v32h-16zm0 0"/>
<path d="m464 240h32v16h-32zm0 0"/>
<path d="m240 0h16v32h-16zm0 0"/>

<path d="m16 40c0-13.230469 10.769531-24 24-24h48v-16h-48c-22.054688 0-40 17.945312-40 40v48h16zm0 0"/>
<path d="m16 456v-48h-16v48c0 22.054688 17.945312 40 40 40h48v-16h-48c-13.230469 0-24-10.769531-24-24zm0 0"/>
<path d="m480 456c0 13.230469-10.769531 24-24 24h-48v16h48c22.054688 0 40-17.945312 40-40v-48h-16zm0 0"/>
<path d="m456 0h-48v16h48c13.230469 0 24 10.769531 24 24v48h16v-48c0-22.054688-17.945312-40-40-40zm0 0"/> 

<path d="m248 432c-101.457031 0-184-82.535156-184-184 0-46.265625 17.265625-90.496094 48.601562-124.558594l-11.777343-10.832031c-34.0625 37.015625-52.824219 85.101563-52.824219 135.390625 0 110.28125 89.71875 200 200 200 50.296875 0 98.375-18.761719 135.390625-52.832031l-10.832031-11.769531c-34.0625 31.34375-78.292969 48.601562-124.558594 48.601562zm0 0"/> 
<path d="m248 48c-50.296875 0-98.375 18.761719-135.390625 52.832031l10.832031 11.769531c34.0625-31.34375 78.292969-48.601562 124.558594-48.601562 101.457031 0 184 82.535156 184 184 0 46.265625-17.265625 90.496094-48.601562 124.558594l11.777343 10.832031c34.0625-37.015625 52.824219-85.101563 52.824219-135.390625 0-110.28125-89.71875-200-200-200zm0 0"/>
<path d="m448 32h16v16h-16zm0 0"/>
<path d="m32 32h16v16h-16zm0 0"/>
<path d="m32 448h16v16h-16zm0 0"/>
<path d="m448 448h16v16h-16zm0 0"/>
</svg>