<?xml version="1.0" encoding="iso-8859-1"?>
<!-- Generator: Adobe Illustrator 17.1.0, SVG Export Plug-In . SVG Version: 6.00 Build 0)  -->
<!DOCTYPE svg PUBLIC "-//W3C//DTD SVG 1.1//EN" "http://www.w3.org/Graphics/SVG/1.1/DTD/svg11.dtd">
<svg version="1.1" id="Capa_1" xmlns="http://www.w3.org/2000/svg" xmlns:xlink="http://www.w3.org/1999/xlink" x="0px" y="0px"
	 viewBox="0 0 380.662 380.662" style="enable-background:new 0 0 380.662 380.662;" xml:space="preserve">
<path d="M150.943,107.736c0,6.106-4.95,11.057-11.056,11.057s-11.056-4.951-11.056-11.057c0-6.106,4.95-11.057,11.056-11.057
	S150.943,101.629,150.943,107.736z M178.553,96.679c-6.106,0-11.056,4.95-11.056,11.057c0,6.106,4.95,11.057,11.056,11.057
	c6.107,0,11.056-4.951,11.056-11.057C189.61,101.629,184.66,96.679,178.553,96.679z M215.039,343.175
	c-16.498,11.44-35.8,17.487-55.819,17.487c-54.275,0-98.432-44.155-98.432-98.43V118.43c0-54.274,44.156-98.43,98.432-98.43
	c54.274,0,98.431,44.155,98.431,98.43v44.011c0,5.522,4.478,10,10,10s10-4.478,10-10V118.43C277.65,53.127,224.522,0,159.22,0
	C93.916,0,40.788,53.127,40.788,118.43v143.803c0,65.303,53.128,118.43,118.432,118.43c24.111,0,47.354-7.279,67.216-21.052
	c4.538-3.147,5.667-9.378,2.52-13.916S219.576,340.028,215.039,343.175z M339.874,246.097v40.219c0,5.522-4.478,10-10,10h-32.115
	v32.115c0,5.522-4.478,10-10,10h-40.217c-5.522,0-10-4.478-10-10v-32.115h-32.115c-5.522,0-10-4.478-10-10v-40.219
	c0-5.522,4.478-10,10-10h32.115v-32.114c0-5.522,4.478-10,10-10h40.217c5.522,0,10,4.478,10,10v32.114h32.115
	C335.396,236.097,339.874,240.574,339.874,246.097z M319.874,256.097h-32.115c-5.522,0-10-4.478-10-10v-32.114h-20.217v32.114
	c0,5.522-4.478,10-10,10h-32.115v20.219h32.115c5.522,0,10,4.478,10,10v32.115h20.217v-32.115c0-5.522,4.478-10,10-10h32.115
	V256.097z M233.142,119.661c0,28.154-16.333,54.216-41.646,66.52c-3,15.076-16.332,26.474-32.275,26.474
	c-15.942,0-29.274-11.396-32.276-26.471c-25.423-12.328-41.646-38.034-41.646-66.522c0-40.761,33.162-73.922,73.923-73.922
	S233.142,78.9,233.142,119.661z M172.127,179.746c0-7.117-5.79-12.907-12.907-12.907s-12.908,5.79-12.908,12.907
	s5.791,12.908,12.908,12.908S172.127,186.863,172.127,179.746z M213.142,119.661c0-29.732-24.189-53.922-53.922-53.922
	c-29.733,0-53.923,24.189-53.923,53.922c0,18.514,9.393,35.417,24.555,45.246c5.434-10.712,16.558-18.068,29.368-18.068
	c12.804,0,23.924,7.352,29.36,18.054C203.691,155.031,213.142,137.951,213.142,119.661z"/>
<g>
</g>
<g>
</g>
<g>
</g>
<g>
</g>
<g>
</g>
<g>
</g>
<g>
</g>
<g>
</g>
<g>
</g>
<g>
</g>
<g>
</g>
<g>
</g>
<g>
</g>
<g>
</g>
<g>
</g>
</svg>
