<svg xmlns="http://www.w3.org/2000/svg" width="26" height="36" viewBox="0 0 26 36">
    <g fill="#3CA8BF" fill-rule="nonzero">
        <path d="M7.913 10.991h-.791a.564.564 0 0 0-.565.563c0 .31.253.562.565.562h.791a.564.564 0 0 0 .565-.562.564.564 0 0 0-.565-.563zM9.688 12.122h2.995a.564.564 0 0 0 .566-.563.564.564 0 0 0-.566-.562H9.688a.564.564 0 0 0-.565.562c0 .311.253.563.565.563zM7.913 13.742h-.791a.564.564 0 0 0-.565.562c0 .311.253.563.565.563h.791a.564.564 0 0 0 .565-.563.564.564 0 0 0-.565-.562zM9.688 14.873h5.652a.564.564 0 0 0 .565-.563.564.564 0 0 0-.565-.563H9.688a.564.564 0 0 0-.565.563c0 .31.253.563.565.563zM7.913 16.492h-.791a.564.564 0 0 0-.565.563c0 .31.253.563.565.563h.791a.564.564 0 0 0 .565-.563.564.564 0 0 0-.565-.563zM9.688 17.623h2.306a.564.564 0 0 0 .565-.562.564.564 0 0 0-.565-.563H9.688a.564.564 0 0 0-.565.563c0 .31.253.562.565.562zM7.913 19.243h-.791a.564.564 0 0 0-.565.563c0 .31.253.562.565.562h.791a.564.564 0 0 0 .565-.562.564.564 0 0 0-.565-.563zM9.688 20.374h9.337a.564.564 0 0 0 .565-.563.564.564 0 0 0-.565-.562H9.688a.564.564 0 0 0-.565.562c0 .31.253.563.565.563zM7.913 22h-.791a.564.564 0 0 0-.565.562c0 .31.253.562.565.562h.791a.564.564 0 0 0 .565-.562.564.564 0 0 0-.565-.563zM9.688 23.124h2.995a.564.564 0 0 0 .566-.562.564.564 0 0 0-.566-.563H9.688a.564.564 0 0 0-.565.563c0 .31.253.562.565.562zM7.913 24.75h-.791a.564.564 0 0 0-.565.563c0 .31.253.562.565.562h.791a.564.564 0 0 0 .565-.563.564.564 0 0 0-.565-.562zM14.696 25.313a.564.564 0 0 0-.566-.563H9.688a.564.564 0 0 0-.565.563c0 .31.253.562.565.562h4.442a.564.564 0 0 0 .566-.563zM19.178 27.731h-.526a.564.564 0 0 0-.565.563c0 .31.253.562.565.562h.565a.564.564 0 0 0 .566-.562.564.564 0 0 0-.566-.563h-.04zM16.764 27.731H14.13a.564.564 0 0 0-.565.563c0 .31.253.562.565.562h2.64a.564.564 0 0 0 .565-.562.564.564 0 0 0-.565-.563h-.006z"/>
        <path d="M23.97 4.303h-4.385v-.079a1.883 1.883 0 0 0-1.888-1.878h-.967a4.247 4.247 0 0 0-3.8-2.344 4.247 4.247 0 0 0-3.802 2.344h-.966a1.883 1.883 0 0 0-1.888 1.878v.08H1.888c-.502 0-.983.198-1.337.551A1.874 1.874 0 0 0 0 6.187v27.934C0 35.16.845 36 1.888 36H23.97c.5 0 .98-.198 1.335-.55.354-.353.553-.83.553-1.329V6.187c.001-.499-.197-.978-.551-1.332a1.892 1.892 0 0 0-1.337-.552zM8.146 4.224h2.408A2.351 2.351 0 0 1 12.91 1.88a2.351 2.351 0 0 1 2.357 2.345h2.407v2.88H8.162l-.017-2.88zM4.793 6.187h1.48v.923c-.002.5.195.981.55 1.336.354.355.836.554 1.339.554h9.535a1.883 1.883 0 0 0 1.888-1.879v-.934h1.48v24.255H4.794V6.188zm19.178 27.934H1.888V6.187h1.775v24.255c0 .622.506 1.125 1.13 1.125h16.273c.624 0 1.13-.503 1.13-1.125V6.188h1.775v27.934z"/>
        <ellipse cx="12.932" cy="4.343" rx="1" ry="1"/>
    </g>
</svg>
