<svg xmlns="http://www.w3.org/2000/svg" width="31" height="36" viewBox="0 0 31 36">
    <g fill="#3CA8BF" fill-rule="nonzero">
        <path d="M22.128 16.037H19.93v-2.2c0-.62-.505-1.124-1.127-1.124H15.42c-.622 0-1.127.503-1.127 1.125v2.193h-2.198c-.623 0-1.128.504-1.128 1.125v3.375c0 .622.505 1.125 1.128 1.125h2.198v2.194c0 .621.505 1.125 1.127 1.125h3.382c.622 0 1.127-.504 1.127-1.125v-2.194h2.198c.623 0 1.128-.503 1.128-1.125v-3.375a1.126 1.126 0 0 0-1.128-1.12zm0 4.5h-3.325v3.324H15.42v-3.33h-3.325v-3.375h3.325v-3.318h3.382v3.318h3.325v3.38z"/>
        <path d="M28.745 1.249h-.603A1.882 1.882 0 0 0 26.367 0H22.42a1.882 1.882 0 0 0-1.792 1.249H1.883A1.88 1.88 0 0 0 0 3.127v30.994A1.88 1.88 0 0 0 1.883 36h26.862a1.884 1.884 0 0 0 1.883-1.879V3.127a1.877 1.877 0 0 0-1.883-1.878zm-6.363 1.878V1.88h3.945v9.416l-1.888-1.097-2.09 1.097.033-8.168zm6.363 30.994H6.11V8.955a.563.563 0 0 0-1.127 0v25.166h-3.1V3.127h3.1v3.471a.563.563 0 0 0 1.127 0v-3.47h15.14v8.167c0 .394.206.759.543.963a1.13 1.13 0 0 0 1.108.033l1.544-.805 1.347.782a1.13 1.13 0 0 0 1.69-.973V3.127h1.263v30.994z"/>
    </g>
</svg>
