<svg xmlns="http://www.w3.org/2000/svg" width="28" height="37" viewBox="0 0 28 37">
    <path fill="#3CA8BF" fill-rule="nonzero" d="M27.606 21.254a.959.959 0 0 0-1.355 0l-3.497 3.466-1.04-1.008 4.057-4.02a1.889 1.889 0 0 0 0-2.685l-1.142-1.133a1.923 1.923 0 0 0-2.709 0l-5.143 5.097-.72.714-.628.708a1.88 1.88 0 0 0-.572 1.081 7.59 7.59 0 0 1-4.8-6.898c.121-.226.217-.466.286-.713l2.131 2.112a1.923 1.923 0 0 0 1.743.527l.337.334a1.923 1.923 0 0 0 2.709 0l1.714-1.699a1.889 1.889 0 0 0 0-2.684l-.331-.334a1.886 1.886 0 0 0-.52-1.7L7.783 2.113a1.923 1.923 0 0 0-1.354-.566H6L4.989.566a1.927 1.927 0 0 0-2.703 0L.57 2.266a1.885 1.885 0 0 0 0 2.678l1 1.002v.414c0 .507.207.992.572 1.348l3.868 3.834a3.514 3.514 0 0 0-2.6 3.107 3.502 3.502 0 0 0 2.075 3.473A12.192 12.192 0 0 0 8.994 25.1c.263.26.537.504.823.736a1.82 1.82 0 0 0-.04.226l-.48 5.267a1.905 1.905 0 0 0-1.868 1.892v1.132a1.906 1.906 0 0 0 1.914 1.892h8.423c1.057 0 1.914-.85 1.914-1.897v-1.133c0-1.03-.83-1.873-1.869-1.897l-.24-2.64h.2c.412 0 .818 0 1.229-.067l1 1.002a1.923 1.923 0 0 0 2.709 0l1.142-1.132a1.879 1.879 0 0 0 .24-2.39l3.526-3.495a.941.941 0 0 0-.011-1.342zM3.486 6.371V5.165L1.914 3.607 3.63 1.91l.857.849-.612.6a.565.565 0 0 0 .257.952.577.577 0 0 0 .555-.147l.714-.708h1.023l10.246 10.137-1.24 1.251a.565.565 0 0 0 0 .805.577.577 0 0 0 .811 0l.64-.635.771.765-1.714 1.699-1.468-1.45-.612.606L3.486 6.371zm1.834 8.557c0-.891.73-1.614 1.629-1.614s1.628.723 1.628 1.614c0 .892-.729 1.614-1.628 1.614-.9 0-1.629-.722-1.629-1.614zm2.149 3.466c.29-.04.575-.119.845-.232.736 3.918 3.859 6.966 7.823 7.634l1.006.974c-4.777-.27-8.759-3.72-9.669-8.376H7.47zm8.497 13.722h-2.64a.569.569 0 0 0-.572.567c0 .312.256.566.572.566h4.44v1.093H9.343v-1.087h1.954a.569.569 0 0 0 .572-.567.569.569 0 0 0-.572-.566h-.154l.463-5.052a12.316 12.316 0 0 0 4 1.439l.36 3.607zm5.377-3.845l-4.572-4.53.692-.686.72-.713 5.143-5.097 1.143 1.132-5.412 5.358 3.429 3.398-1.143 1.138z"/>
</svg>
